<?xml version="1.0" encoding="UTF-8" standalone="no"?>
<!-- Created with Inkscape (http://www.inkscape.org/) -->

<svg
   version="1.1"
   id="svg1"
   width="490.85519"
   height="368.93219"
   viewBox="0 0 490.85519 368.93219"
   xmlns="http://www.w3.org/2000/svg"
   xmlns:svg="http://www.w3.org/2000/svg">
  <defs
     id="defs1" />
  <g
     id="g1"
     transform="translate(-267.03352,-71.043051)">
    <g
       id="g4">
      <path
         style="fill:#c28f2c"
         d="m 469.87244,382.25 c -1.24387,-1.58606 -1.2085,-1.62143 0.37756,-0.37756 1.66575,1.30637 2.19548,2.12756 1.37244,2.12756 -0.20765,0 -0.99515,-0.7875 -1.75,-1.75 z m 36.58044,-33 c -5.44007,-7.44407 -16.80967,-19.07494 -37.718,-38.58475 -22.91201,-21.37947 -26.29551,-27.77772 -29.74491,-56.24802 -2.18871,-18.06497 -4.69366,-30.00976 -7.38468,-35.21362 l -1.50634,-2.91294 11.20053,3.71436 c 17.5705,5.82678 30.44707,10.86935 40.07697,15.69447 5.84629,2.92931 9.21376,4.11029 9.86455,3.4595 0.54344,-0.54344 5.24103,-10.58904 10.43907,-22.32354 5.19804,-11.7345 9.78337,-21.67483 10.18961,-22.08961 0.40624,-0.41478 2.13507,2.51022 3.84185,6.5 7.49526,17.52104 16.39318,37.25886 17.12757,37.99325 0.43978,0.43978 5.58062,-1.43858 11.4241,-4.17412 C 556.62665,229.27719 589.75833,217 593.01403,217 c 0.41442,0 -0.34638,2.723 -1.69066,6.05111 -1.51167,3.74251 -3.18382,11.46822 -4.38292,20.25 -4.13809,30.30613 -4.5434,32.24613 -8.34363,39.9372 -4.87112,9.85839 -11.82493,18.01911 -26.721,31.35877 -16.55022,14.82096 -25.23586,23.62522 -32.87657,33.32561 C 515.5,352.36521 512.35546,356 512.01136,356 c -0.34409,0 -2.84541,-3.0375 -5.55848,-6.75 z m -55.04789,-38.5 -1.90499,-2.25 2.25,1.90499 c 1.2375,1.04774 2.25,2.06024 2.25,2.25 0,0.80025 -0.80479,0.20945 -2.59501,-1.90499 z m -149.53255,-43.5 c -1.24387,-1.58606 -1.2085,-1.62143 0.37756,-0.37756 1.66575,1.30637 2.19548,2.12756 1.37244,2.12756 -0.20765,0 -0.99515,-0.7875 -1.75,-1.75 z m 69.2215,-15.63681 c -0.81795,-0.98557 -0.86038,-1.6395 -0.13544,-2.08754 0.5806,-0.35883 1.33304,0.0705 1.6721,0.9541 0.84418,2.19989 -0.0836,2.88424 -1.53666,1.13344 z m 225.98501,-5.19652 c 0.048,-1.16495 0.28494,-1.4019 0.60416,-0.60417 0.28887,0.72187 0.25335,1.58437 -0.0789,1.91667 -0.33229,0.33229 -0.56864,-0.25834 -0.52522,-1.3125 z M 757.30987,160.5 c 0.006,-3.3 0.1923,-4.52944 0.41486,-2.73209 0.22256,1.79735 0.21797,4.49735 -0.0102,6 -0.22818,1.50265 -0.41027,0.0321 -0.40466,-3.26791 z M 738.15789,124 c 0,-1.375 0.22698,-1.9375 0.50439,-1.25 0.27741,0.6875 0.27741,1.8125 0,2.5 -0.27741,0.6875 -0.50439,0.125 -0.50439,-1.25 z M 297.5,110 c -0.33992,-0.55 -0.14148,-1 0.44098,-1 0.58246,0 1.05902,0.45 1.05902,1 0,0.55 -0.19844,1 -0.44098,1 -0.24254,0 -0.7191,-0.45 -1.05902,-1 z"
         id="path6" />
      <path
         style="fill:white"
         d="m 448.13834,190.68604 c -2.41635,-8.36491 -25.08333,-83.97717 -25.59169,-85.36851 -0.50375,-1.3787 1.39952,-0.29612 23.45335,13.34033 14.41829,8.91519 16.45854,10.49505 16.17141,12.52225 -1.97953,13.97599 -0.61994,18.35102 7.22108,23.23656 12.20516,7.60472 27.17236,-1.31798 26.96078,-16.07266 -0.0854,-5.95641 -2.58726,-10.71511 -7.90263,-15.0314 l -3.46362,-2.81261 3.25649,-6.11344 C 502.70298,87.241658 511.57844,71.04846 512,71.043052 c 0.67151,-0.0086 27,48.398728 27,49.641978 0,0.53736 -1.11148,1.57186 -2.46996,2.29889 -1.35848,0.72704 -3.72098,3.12711 -5.25,5.33348 -2.36855,3.41781 -2.78004,5.00964 -2.78004,10.75428 0,6.05153 0.31838,7.13658 3.10602,10.5855 4.36086,5.39532 8.51986,7.57359 14.46038,7.57359 11.93774,0 20.63647,-12.17009 16.59671,-23.21986 -1.51548,-4.14521 -1.51843,-4.59198 -0.0364,-5.51091 0.88702,-0.55 6.17138,-3.87472 11.74304,-7.38826 22.56783,-14.23151 27.89938,-17.25511 27.18762,-15.4185 -0.38511,0.99372 -1.31858,4.05676 -2.07439,6.80676 -2.35299,8.56141 -3.40918,12.1206 -13.20538,44.5 -5.24158,17.325 -9.86184,32.625 -10.26724,34 -0.4054,1.375 -1.19776,2.40444 -1.7608,2.28764 -0.56304,-0.1168 -6.13702,-1.7574 -12.38662,-3.64577 -17.90414,-5.40991 -28.88855,-6.98995 -48.86292,-7.02864 -21.48107,-0.0416 -39.42706,2.82196 -58.22066,9.29002 l -5.72065,1.96884 z"
         id="path5" />
      <path
         style="fill:#c28f2c"
         d="m 510.74184,438.83433 c -0.77812,-1.28388 -3.9328,-6.63598 -7.0104,-11.89354 C 496.17177,414.02633 488.74097,403.89565 474.5125,387.10556 460.86312,370.99883 428.07321,338.68395 414.40539,327.86924 396.0994,313.38455 378.90544,304.88025 354,297.99215 332.01504,291.91176 320.81836,285.89841 308.46718,273.53805 289.18073,254.23727 277.18772,228.03974 269.99526,189.5 c -2.32093,-12.43638 -2.9805,-18.78407 -2.96134,-28.5 l 0.0247,-12.5 3.43449,7.70845 c 12.13773,27.24221 34.75633,51.95533 64.03708,69.96704 16.36072,10.0641 23.22908,14.673 30.63018,20.55389 4.31182,3.42616 7.83967,5.7312 7.83967,5.12231 0,-2.18158 -10.11816,-14.69861 -17.74887,-21.95687 C 350.97532,225.82767 342.0671,218.1502 335.45512,212.83378 316.31062,197.44051 304.71101,184.85494 297.82024,172 284.4213,147.00385 282.57718,117.26606 292.51815,86.5 c 2.31028,-7.15 4.56279,-13 5.00559,-13 0.44279,0 1.57005,3.15 2.50502,7 10.00165,41.18485 26.60048,69.5207 53.71235,91.69229 6.36721,5.20699 23.8553,16.81252 32.68727,21.69207 14.9914,8.28256 28.58223,19.89509 33.64913,28.75112 3.9463,6.8974 5.53029,13.31924 6.87298,27.86452 1.53102,16.58544 2.6803,23.21712 5.4342,31.35697 4.2024,12.42122 14.60608,25.57073 32.14423,40.62802 18.04899,15.49587 31.44903,30.35566 41.793,46.3458 2.466,3.81205 4.95823,7.22432 5.53827,7.58281 0.58005,0.35848 1.70621,-0.60042 2.50258,-2.1309 0.79637,-1.53049 5.61157,-8.4077 10.70044,-15.2827 9.48944,-12.82012 20.70533,-24.71386 33.93679,-35.98783 10.51742,-8.96145 21.57883,-20.48271 25.91194,-26.98916 3.2694,-4.90923 4.61727,-7.67686 8.28162,-17.00505 1.25483,-3.19437 3.39521,-17.99956 4.26739,-29.51796 1.65433,-21.84781 6.91678,-31.94167 22.87274,-43.87207 C 626.94067,200.68784 643.54971,190 644.6197,190 c 0.25371,0 1.68056,-0.84114 3.17079,-1.8692 1.49023,-1.02806 6.08451,-4.0236 10.20951,-6.65675 29.11391,-18.5846 49.68331,-46.04281 60.659,-80.97405 0.86407,-2.75 2.12772,-6.575 2.80811,-8.5 0.68039,-1.925 2.06378,-7.213784 3.0742,-11.752852 1.13649,-5.105385 2.14668,-7.775041 2.64879,-7 2.086,3.219881 8.13093,24.233645 9.39679,32.665722 1.81351,12.07999 1.79978,27.37446 -0.0339,37.7939 -4.64862,26.4143 -17.88815,45.33879 -49.55296,70.83065 -14.55363,11.71645 -24.62014,21.5317 -31.6004,30.81166 -4.28612,5.69823 -5.78035,8.97895 -3.1496,6.91524 0.6875,-0.53931 4.175,-3.32677 7.75,-6.19436 3.575,-2.86759 12.35,-8.85932 19.5,-13.31496 39.31768,-24.50146 57.37774,-42.4056 71.95161,-71.33042 l 5.50438,-10.92458 0.022,13.20078 c 0.0121,7.26043 -0.40271,15.36043 -0.92181,18 -0.5191,2.63957 -1.66351,8.62422 -2.54314,13.29922 -0.87964,4.675 -2.20558,10.525 -2.94655,13 -0.74096,2.475 -2.13279,7.2 -3.09295,10.5 -2.93109,10.07393 -11.46424,28.5339 -17.29506,37.41481 -15.05989,22.93769 -31.08995,34.23763 -59.67849,42.06869 -25.46624,6.97579 -42.96116,15.68735 -62,30.87277 -9.43786,7.52766 -53.48197,51.54605 -62.18004,62.14373 -11.25723,13.71575 -20.47686,26.71165 -27.55009,38.83433 -6.43233,11.02427 -6.65195,11.27048 -8.02803,9 z M 299,110 c 0,-0.55 -0.45,-1 -1,-1 -0.55,0 -1,0.45 -1,1 0,0.55 0.45,1 1,1 0.55,0 1,-0.45 1,-1 z"
         id="path4" />
    </g>
  </g>
</svg>
