<?xml version="1.0" encoding="UTF-8" standalone="no"?>
<!-- Created with Inkscape (http://www.inkscape.org/) -->

<svg
   version="1.1"
   id="svg1"
   width="622"
   height="100.97981"
   viewBox="0 0 622 100.97981"
   xmlns="http://www.w3.org/2000/svg"
   xmlns:svg="http://www.w3.org/2000/svg">
  <defs
     id="defs1" />
  <g
     id="g1"
     transform="translate(-201,-241.93234)">
    <path
       style="fill:#000000"
       d="m 350.83637,341.08116 c -7.57728,-2.42329 -11.86094,-5.20239 -17.23909,-11.18419 -6.6768,-7.42621 -8.85096,-14.13363 -8.3943,-25.89697 0.43955,-11.32246 2.75249,-17.01079 9.78689,-24.06943 16.9751,-17.03356 50.78393,-14.65419 63.96344,4.50157 4.57699,6.65243 6.15173,12.01722 6.18409,21.06786 0.0206,5.75692 -0.56478,9.58336 -2.08774,13.64709 -3.80923,10.16422 -13.67731,18.95923 -24.98116,22.26465 -7.27203,2.12646 -20.03372,1.97154 -27.23213,-0.33058 z m 20.492,-16.67738 c 7.52793,-2.56502 12.68784,-10.51966 12.66186,-19.5198 -0.0142,-4.90404 -4.21627,-13.19669 -8.08195,-15.94929 -4.47927,-3.18952 -14.09888,-3.88714 -19.33545,-1.40223 -14.39031,6.82866 -13.42461,30.94209 1.46777,36.64968 5.64289,2.16267 7.50023,2.19365 13.28777,0.22164 z m 171.94133,17.54216 c -23.72909,-4.68336 -35.98315,-29.99792 -25.32823,-52.3233 10.55514,-22.11631 42.75578,-26.53767 58.94941,-8.09414 4.7962,5.46257 7.21657,11.85539 7.84531,20.7215 l 0.5496,7.75 H 554.7482 524.21062 l 0.73605,3.25 c 2.84639,12.5682 16.28032,21.73261 30.02981,20.48585 6.37001,-0.57761 14.27125,-3.6805 17.79017,-6.98636 l 2.29157,-2.15281 3.22089,3.24953 3.22089,3.24952 -3.5,2.89146 c -9.25013,7.6418 -21.78373,10.51399 -34.7303,7.95875 z M 575.35534,299.25 C 573.96789,293.66166 571.8544,289.8544 568,286 c -5.68271,-5.68271 -9.97102,-7.21691 -19.07848,-6.82561 -6.35821,0.27318 -8.36668,0.81292 -12.47357,3.35205 -5.47998,3.38805 -10.18446,10.07502 -11.11282,15.79581 L 524.73832,302 h 25.64989 25.64989 z M 618.5,342.07129 c -6.62021,-1.59766 -11.66974,-6.42066 -13.45599,-12.85234 -0.57337,-2.06449 -1.03534,-14.06226 -1.03843,-26.96895 L 604,279 h -6.5 -6.5 v -4 -4 h 6.5 6.5 v -8 -8 h 5 5 v 8 8 h 11 11 v 4 4 h -11 -11 v 21.97976 c 0,24.38481 0.73208,28.24933 5.93351,31.32189 3.55276,2.09867 8.98469,2.1772 13.72073,0.19835 1.97451,-0.825 3.70546,-1.5 3.84656,-1.5 0.82385,0 2.63347,6.20773 2.16528,7.4278 -1.22529,3.19305 -13.95359,5.38408 -21.16608,3.64349 z m 52.84024,0.0296 c -5.51578,-1.41633 -9.76355,-4.56664 -12.34024,-9.15199 -2.45117,-4.36199 -2.50612,-4.93226 -2.81338,-29.19888 L 655.87324,279 H 649.43662 643 v -4 -4 h 6.5 6.5 v -7.90349 -7.90348 l 5.08382,-0.34652 c 2.79611,-0.19058 5.27111,-0.15901 5.5,0.0702 0.2289,0.22916 0.41618,3.94166 0.41618,8.25 V 271 h 11 11 v 4 4 h -11 -11 v 23.77749 c 0,26.0039 0.13907,26.69171 6.01104,29.72822 3.61895,1.87143 9.70993,1.86875 12.98896,-0.006 1.375,-0.78602 2.83146,-1.44508 3.23658,-1.46456 0.71608,-0.0344 4.0525,7.05261 3.52655,7.49092 -3.78518,3.15448 -15.46747,5.10372 -21.42289,3.57451 z m 53.91043,-0.57882 C 708.99597,336.93698 699.38438,325.36725 698.26521,309.0389 696.73526,286.71736 712.03772,270 734,270 c 10.52789,0 21.18811,4.68112 27.35779,12.01336 4.30454,5.11566 6.76994,11.88461 7.37062,20.23664 l 0.55738,7.75 H 738.62384 707.9619 l 0.66095,2.75 c 4.70414,19.57238 29.16942,27.60026 46.29842,15.19207 l 4.29368,-3.11032 2.82472,2.70626 c 2.32774,2.23011 2.62699,3.02289 1.70086,4.50587 -1.40489,2.24957 -8.7964,6.97259 -13.60814,8.69531 -5.79789,2.07578 -18.84305,2.48622 -24.88172,0.78286 z M 759,299.69634 c 0,-3.81474 -4.9155,-12.46316 -8.82859,-15.53318 -9.5932,-7.52633 -24.06592,-7.06467 -33.69225,1.07474 -3.09332,2.61552 -6.7455,9.10929 -7.88059,14.0121 L 707.9619,302 H 733.48095 759 Z M 201,295 v -47 h 37 37 v 8.5 8.5 H 249.5 224 v 10 10 h 22.5 22.5 v 8.5 8.5 H 246.5 224 v 11 11 h 26.5 26.5 v 9 9 h -38 -38 z m 89.39427,-2.75 0.22149,-49.75 10.69212,-0.28383 L 312,241.93234 V 291.96617 342 H 301.08639 290.17278 Z M 422,295 v -47 h 26.3185 c 21.10503,0 27.3753,0.31384 31.65341,1.5843 10.75515,3.19394 15.88227,8.29916 18.13472,18.05729 0.95101,4.12001 0.86429,5.94663 -0.50613,10.6607 -1.71226,5.88995 -6.28516,12.14546 -9.66209,13.21726 -2.6861,0.85253 -2.42239,2.14216 0.5928,2.89893 4.33561,1.08817 12.13107,9.51618 13.48713,14.58152 1.8249,6.8166 0.7411,16.25402 -2.41417,21.02196 -6.70004,10.12444 -14.40671,11.93702 -50.85417,11.96068 L 422,342 Z m 61.5,35.41301 c 5.8754,-3.06547 8.50081,-7.48766 8.49626,-14.31089 -0.007,-10.01087 -5.04119,-15.09542 -16.90678,-17.07481 -3.63647,-0.60663 -14.65601,-0.97109 -24.58948,-0.81328 l -18,0.28597 -0.27396,17.32957 -0.27395,17.32958 23.77395,-0.32958 c 21.79132,-0.30209 24.10754,-0.50362 27.77396,-2.41656 z m -5.40785,-43.10643 C 484.55987,284.413 487.5,279.94193 487.5,273 c 0,-6.59099 -2.54225,-10.80013 -8.23031,-13.62671 -3.26841,-1.62419 -6.66194,-1.91373 -25.51969,-2.17742 L 432,256.89175 v 15.88746 c 0,8.7381 0.3375,16.23616 0.75,16.66234 0.4125,0.42619 9.75,0.58243 20.75,0.3472 17.44014,-0.37296 20.58776,-0.69066 24.59215,-2.48217 z M 785.91325,341.25 c -0.0477,-0.4125 -0.23984,-16.3875 -0.42696,-35.5 L 785.14607,271 H 790.07304 795 v 6 c 0,3.3 0.13917,6 0.30927,6 0.1701,0 2.61225,-2.21978 5.42701,-4.93284 5.23076,-5.04179 8.83339,-6.634 17.51372,-7.74034 l 4.75,-0.6054 V 274.86071 280 l -3.75,0.006 c -6.36068,0.009 -11.15354,1.93481 -15.69187,6.30364 C 796.9391,292.68103 796,297.07604 796,321.6815 V 342 h -5 c -2.75,0 -5.03904,-0.3375 -5.08675,-0.75 z"
       id="path1" />
  </g>
</svg>
